<svg xmlns="http://www.w3.org/2000/svg" viewBox="0 0 304 152" overflow="visible" id="svg-53465360_2750"><g><g><defs><path d="M 0 152 C 0 132.039 3.932 112.274 11.57 93.832 C 19.209 75.391 30.405 58.634 44.52 44.52 C 58.634 30.405 75.391 19.209 93.832 11.57 C 112.274 3.932 132.039 0 152 0 C 171.961 0 191.727 3.932 210.168 11.57 C 228.61 19.209 245.366 30.405 259.481 44.52 C 273.595 58.634 284.791 75.391 292.429 93.832 C 300.068 112.274 304 132.039 304 152 L 258.939 152 C 258.939 137.957 256.172 124.051 250.799 111.076 C 245.424 98.102 237.547 86.313 227.616 76.383 C 217.687 66.453 205.898 58.576 192.924 53.202 C 179.949 47.828 166.043 45.062 152 45.062 C 137.957 45.062 124.051 47.828 111.076 53.202 C 98.102 58.576 86.313 66.453 76.383 76.383 C 66.453 86.313 58.576 98.102 53.202 111.076 C 47.828 124.051 45.062 137.957 45.062 152 Z" id="svg-53465360_2750_a1000z"/><filter id="svg-53465360_2750_a1002z" filterUnits="objectBoundingBox" x="-12.4%" y="-25.5%" width="124.8%" height="151.1%"><feOffset dx="0" dy="1.12" in="SourceAlpha" result="a1007z"/><feGaussianBlur stdDeviation="8.975" in="a1007z" result="a1008z"/><feFlood flood-color="rgba(76, 0, 255, 0.25)" result="a1009z"/><feComposite in="a1009z" in2="a1008z" operator="in" result="a1003z"/></filter><filter id="svg-53465360_2750_a1005z" x="-1.3%" y="-3.9%" width="102.6%" height="107.8%" filterUnits="objectBoundingBox"><feGaussianBlur stdDeviation="2" in="SourceAlpha" result="a1010z"/><feOffset dx="0" dy="2" in="a1010z" result="a1011z"/><feComposite in="a1011z" in2="SourceAlpha" operator="arithmetic" k2="-1" k3="1" result="a1012z"/><feFlood flood-color="rgba(60, 0, 255, 0.25)" result="a1013z"/><feComposite in="a1013z" in2="a1012z" operator="in" result="a1006z"/></filter><linearGradient id="svg-53465360_2750_idszyl8Z0ZYb_2g1467480336" x1="0.4850497064392019" x2="0.5149502935607981" y1="0" y2="1"><stop offset="0" stop-color="rgb(255,255,255)" stop-opacity="1"/><stop offset="0.6409769144144144" stop-color="rgb(108, 71, 255)" stop-opacity="1"/><stop offset="1" stop-color="rgb(255, 255, 255)" stop-opacity="1"/></linearGradient></defs><mask id="svg-53465360_2750_a1004z" x="-12.4%" y="-25.5%" width="124.8%" height="151.1%"><rect x="-12.4%" y="-25.5%" width="124.8%" height="151.1%" fill="white"/><use href="#svg-53465360_2750_a1000z" fill="black"/></mask><g filter="url(#svg-53465360_2750_a1002z)" mask="url(#svg-53465360_2750_a1004z)"><use fill="black" stroke="black" stroke-opacity="0" stroke-width="0" xmlns:xlink="http://www.w3.org/1999/xlink" xlink:href="#svg-53465360_2750_a1000z" clip-path="url(#svg-53465360_2750_a1001z)"/></g><use xmlns:xlink="http://www.w3.org/1999/xlink" xlink:href="#svg-53465360_2750_a1000z" fill="url(#svg-53465360_2750_idszyl8Z0ZYb_2g1467480336)" clip-path="url(#svg-53465360_2750_a1001z)"/><use fill="black" fill-opacity="1" filter="url(#svg-53465360_2750_a1005z)" xmlns:xlink="http://www.w3.org/1999/xlink" xlink:href="#svg-53465360_2750_a1000z"/></g></g></svg>